<?xml version="1.0" encoding="UTF-8"?>
<svg xmlns="http://www.w3.org/2000/svg" onmouseup="{ if(window.parent.document.onmouseup) window.parent.document.onmouseup(arguments[0]);}" width="36" viewBox="0 0 36 36" id="S_Add_18_N_2x" height="36" data-name="S_Add_18_N@2x"><defs><style>
      .fill {
        fill: #707070;
      }

      
    </style></defs><path data-cppathid="10000" d="M29,16H20V7a1,1,0,0,0-1-1H17a1,1,0,0,0-1,1v9H7a1,1,0,0,0-1,1v2a1,1,0,0,0,1,1h9v9a1,1,0,0,0,1,1h2a1,1,0,0,0,1-1V20h9a1,1,0,0,0,1-1V17A1,1,0,0,0,29,16Z" class="fill"/></svg>